<?xml version="1.0" encoding="UTF-8" standalone="no"?>
<svg width="537px" height="94px" viewBox="0 0 537 94" version="1.1" xmlns="http://www.w3.org/2000/svg" xmlns:xlink="http://www.w3.org/1999/xlink" xmlns:sketch="http://www.bohemiancoding.com/sketch/ns">
    <!-- Generator: Sketch 3.4.4 (17248) - http://www.bohemiancoding.com/sketch -->
    <title>logo</title>
    <desc>Created with Sketch.</desc>
    <defs>
        <path id="path-1" d="M0.06,0.276 L536.591,0.276 L536.591,93 L0.06,93"></path>
        <path id="path-3" d="M0.06,0.276 L536.591,0.276 L536.591,93 L0.06,93"></path>
        <path id="path-5" d="M0.06,0.276 L536.591,0.276 L536.591,93 L0.06,93"></path>
    </defs>
    <g id="Page-1" stroke="none" stroke-width="1" fill="none" fill-rule="evenodd" sketch:type="MSPage">
        <rect id="Rectangle-1" fill="#4670A7" sketch:type="MSShapeGroup" x="0" y="0" width="537" height="93"></rect>
        <g id="CONNECT_Logo_Blue" sketch:type="MSLayerGroup">
            <g id="Group-3">
                <mask id="mask-2" sketch:name="Clip 2" fill="white">
                    <use xlink:href="#path-1"></use>
                </mask>
                <g id="Clip-2"></g>
                <path d="M80.842,57.269 C76.292,75.786 60.208,88.06 41.267,88.06 C16.719,88.06 0,68.485 0,47.322 C0,27.324 15.448,6.795 41.056,6.795 C65.604,6.795 78.725,25.736 80.842,38.01 L59.89,38.01 C57.668,32.191 51.742,24.361 40.949,24.361 C27.511,24.361 19.999,36.106 19.999,47.216 C19.999,59.067 28.04,70.495 41.056,70.495 C53.541,70.495 58.621,60.02 59.89,57.269 L80.842,57.269" id="Fill-1" fill="#FFFFFF" sketch:type="MSShapeGroup" mask="url(#mask-2)"></path>
            </g>
            <path d="M187.269,8.277 L204.516,8.277 L234.779,57.48 L234.991,57.269 L234.144,8.277 L253.297,8.277 L253.297,86.579 L235.943,86.579 L206.103,38.963 L205.892,39.068 L206.421,86.579 L187.269,86.579 L187.269,8.277" id="Fill-4" fill="#FFFFFF" sketch:type="MSShapeGroup"></path>
            <path d="M267.589,8.277 L284.836,8.277 L315.098,57.48 L315.311,57.269 L314.463,8.277 L333.617,8.277 L333.617,86.579 L316.263,86.579 L286.423,38.963 L286.212,39.068 L286.741,86.579 L267.589,86.579 L267.589,8.277" id="Fill-5" fill="#FFFFFF" sketch:type="MSShapeGroup"></path>
            <path d="M347.91,8.277 L391.399,8.277 L391.399,25.842 L367.062,25.842 L367.062,38.01 L390.658,38.01 L390.658,55.575 L367.062,55.575 L367.062,69.014 L391.399,69.014 L391.399,86.579 L347.91,86.579 L347.91,8.277" id="Fill-6" fill="#FFFFFF" sketch:type="MSShapeGroup"></path>
            <path d="M481.455,57.269 C476.903,75.786 460.82,88.06 441.879,88.06 C417.331,88.06 400.613,68.485 400.613,47.322 C400.613,27.324 416.062,6.795 441.668,6.795 C466.218,6.795 479.337,25.736 481.455,38.01 L460.503,38.01 C458.282,32.191 452.356,24.361 441.563,24.361 C428.124,24.361 420.611,36.106 420.611,47.216 C420.611,59.067 428.652,70.495 441.668,70.495 C454.154,70.495 459.233,60.02 460.503,57.269 L481.455,57.269" id="Fill-7" fill="#FFFFFF" sketch:type="MSShapeGroup"></path>
            <g id="Group-12">
                <mask id="mask-4" sketch:name="Clip 9" fill="white">
                    <use xlink:href="#path-3"></use>
                </mask>
                <g id="Clip-9"></g>
                <path d="M501.248,25.842 L485.801,25.842 L485.801,8.277 L536.591,8.277 L536.591,25.842 L521.249,25.842 L521.249,86.579 L501.248,86.579 L501.248,25.842" id="Fill-8" fill="#FFFFFF" sketch:type="MSShapeGroup" mask="url(#mask-4)"></path>
                <path d="M132.354,77.156 C133.423,84.761 128.125,91.794 120.519,92.863 C112.914,93.932 105.882,88.634 104.812,81.028 C103.743,73.423 109.042,66.39 116.647,65.321 C124.252,64.252 131.285,69.55 132.354,77.156" id="Fill-10" fill="#FFFFFF" sketch:type="MSShapeGroup" mask="url(#mask-4)"></path>
                <path d="M161.992,77.059 C163.062,84.664 157.763,91.697 150.158,92.766 C142.552,93.835 135.52,88.537 134.451,80.931 C133.381,73.326 138.68,66.294 146.285,65.224 C153.891,64.155 160.923,69.454 161.992,77.059" id="Fill-11" fill="#FFFFFF" sketch:type="MSShapeGroup" mask="url(#mask-4)"></path>
            </g>
            <path d="M179.85,53.361 C180.919,60.966 175.621,67.999 168.015,69.068 C160.41,70.137 153.378,64.839 152.308,57.233 C151.239,49.628 156.538,42.596 164.143,41.526 C171.748,40.457 178.781,45.756 179.85,53.361" id="Fill-13" fill="#FFFFFF" sketch:type="MSShapeGroup"></path>
            <g id="Group-17">
                <mask id="mask-6" sketch:name="Clip 15" fill="white">
                    <use xlink:href="#path-5"></use>
                </mask>
                <use id="Clip-15" sketch:type="MSShapeGroup" xlink:href="#path-5"></use>
                <path d="M173.832,23.968 C174.901,31.573 169.603,38.605 161.997,39.675 C154.392,40.744 147.359,35.445 146.29,27.84 C145.221,20.235 150.519,13.202 158.125,12.133 C165.73,11.064 172.762,16.362 173.832,23.968" id="Fill-14" fill="#FFFFFF" sketch:type="MSShapeGroup" mask="url(#mask-6)"></path>
                <path d="M146.604,12.248 C147.674,19.853 142.375,26.885 134.77,27.955 C127.164,29.024 120.132,23.726 119.063,16.12 C117.993,8.515 123.292,1.482 130.897,0.413 C138.503,-0.656 145.535,4.642 146.604,12.248" id="Fill-16" fill="#FFFFFF" sketch:type="MSShapeGroup" mask="url(#mask-6)"></path>
            </g>
            <path d="M149.124,45.856 C150.361,54.66 144.228,62.801 135.423,64.039 C126.619,65.277 118.478,59.143 117.24,50.339 C116.003,41.534 122.136,33.394 130.941,32.156 C139.745,30.918 147.886,37.052 149.124,45.856" id="Fill-18" fill="#FFFFFF" sketch:type="MSShapeGroup"></path>
            <path d="M114.676,53.666 C115.745,61.272 110.447,68.304 102.841,69.374 C95.236,70.443 88.203,65.144 87.134,57.539 C86.065,49.933 91.363,42.901 98.969,41.832 C106.574,40.762 113.606,46.061 114.676,53.666" id="Fill-19" fill="#FFFFFF" sketch:type="MSShapeGroup"></path>
            <path d="M119.974,24.323 C121.043,31.928 115.744,38.961 108.139,40.03 C100.534,41.099 93.501,35.801 92.432,28.195 C91.363,20.59 96.661,13.557 104.267,12.488 C111.872,11.419 118.904,16.717 119.974,24.323" id="Fill-20" fill="#FFFFFF" sketch:type="MSShapeGroup"></path>
        </g>
    </g>
</svg>